<?xml version="1.0" standalone="no"?>
<!DOCTYPE svg PUBLIC "-//W3C//DTD SVG 1.1//EN" "http://www.w3.org/Graphics/SVG/1.1/DTD/svg11.dtd" >
<svg xmlns="http://www.w3.org/2000/svg" xmlns:xlink="http://www.w3.org/1999/xlink" version="1.1">
<metadata>
Created by FontForge 20161013 at Mon Jun 27 18:54:36 2016
 By ,,,
(c)2016 Missy Meyer
</metadata>
<defs>
<font id="KingBasilLite-Regular" horiz-adv-x="605" >
  <font-face 
    font-family="King Basil Lite"
    font-weight="400"
    font-stretch="normal"
    units-per-em="1000"
    panose-1="0 0 5 4 0 0 0 0 0 4"
    ascent="550"
    descent="-450"
    x-height="416"
    cap-height="897"
    bbox="-217 -463.5 897.474 972.882"
    underline-thickness="53"
    underline-position="-212"
    unicode-range="U+0020-201D"
  />
<missing-glyph 
d="M50 -120h500v840h-500v-840zM100 -70v740h400v-740h-400z" />
    <glyph glyph-name=".notdef" 
d="M50 -120h500v840h-500v-840zM100 -70v740h400v-740h-400z" />
    <glyph glyph-name=".null" horiz-adv-x="0" 
 />
    <glyph glyph-name="nonmarkingreturn" horiz-adv-x="333" 
 />
    <glyph glyph-name="space" unicode=" " horiz-adv-x="293" 
 />
    <glyph glyph-name="exclam" unicode="!" horiz-adv-x="482" 
d="M107 322q0 -22 2.5 -71t2.5 -71q6 -26 36.5 -48t60.5 -18.5t34 41.5q0 269 89 601q19 61 -34 92q-29 18 -45 23t-29 -5.5t-22 -42.5q-19 -62 -57 -235t-38 -266zM250 -34q0 23 -20 44t-47 31q-31 11 -51.5 -15t-18.5 -55.5t16 -39.5q14 -9 41 -16t47 -7q17 8 25 33z" />
    <glyph glyph-name="quotedbl" unicode="&#x22;" horiz-adv-x="375" 
d="M79 493q37 -7 49 34q5 12 10.5 38.5t14.5 73t14 72.5q3 3 -11 11q-39 24 -65 6q-16 -10 -21 -36q-5 -52 -4.5 -96t4 -72.5t9.5 -30.5zM227 483q37 -7 49 34q5 12 10.5 38.5t14.5 73t14 72.5q3 3 -11 11q-39 24 -65 6q-16 -10 -21 -36q-5 -52 -4.5 -96t4 -72.5t9.5 -30.5z
" />
    <glyph glyph-name="ampersand" unicode="&#x26;" horiz-adv-x="747" 
d="M325 510q-27 -25 -59.5 -32t-49.5 -4t-52 13q-10 6 -20.5 29.5t-13.5 63t6 83t46 94.5t100 94q11 8 40 -5.5t38.5 -46.5t-35.5 -96q-6 -11 0 -22.5t16 -13t19 10.5q18 24 30 52t14 59.5t-9.5 56.5t-47 41.5t-92.5 16.5q-38 2 -92.5 -28t-99.5 -85t-49 -131.5t60 -168.5
q7 -9 25 -28t25 -27q-57 -54 -80 -129.5t-10 -151t58 -134.5q12 -16 37.5 -31t60.5 -23t75 -7.5t82 20t79 55t68.5 101t48.5 154.5q12 -4 31.5 -5t47.5 2.5t53.5 23t38.5 53.5q10 26 -7 37q-13 9 -22 -6q-11 -24 -24.5 -36.5t-23.5 -16t-26.5 2t-23.5 9.5t-24 16.5t-18 13.5
q-13 9 -48.5 14.5t-92.5 -10t-99 -62.5q-13 -14 -2 -30t31 0q2 2 15 11t20.5 13t21.5 11.5t25.5 8.5t25.5 1t27 -7.5t26 -21.5q-24 -107 -48 -157q-70 -138 -215 -150q-15 -1 -33.5 21.5t-28.5 65.5t-4.5 96t47.5 123.5t118 138.5q25 50 -6 60z" />
    <glyph glyph-name="quotesingle" unicode="'" horiz-adv-x="237" 
d="M89 492q37 -7 49 34q5 12 10.5 38.5t14.5 73t14 72.5q3 3 -11 11q-39 24 -65 6q-16 -10 -21 -36q-5 -52 -4.5 -96t4 -72.5t9.5 -30.5z" />
    <glyph glyph-name="parenleft" unicode="(" horiz-adv-x="280" 
d="M166 -62q12 -17 22 -10q10 6 1 30q-6 14 -18 55t-25.5 125t-18.5 178t9.5 220t52.5 245q8 20 -1 34t-34 -16q-2 -4 -21 -37t-34.5 -62.5t-36 -83.5t-31 -104.5t-13 -121t10 -138.5t47 -150.5t90.5 -163.5z" />
    <glyph glyph-name="parenright" unicode=")" horiz-adv-x="381" 
d="M61 -86q-9 -19 -2 -22t30 6q17 7 42.5 29t54.5 58.5t58 82.5t50 102t33 116t5.5 126t-31 130t-79 131t-135.5 125q-10 7 -24 13t-20.5 1.5t25.5 -40.5q32 -34 63.5 -88.5t57.5 -143t29.5 -183t-35 -213.5t-122.5 -230z" />
    <glyph glyph-name="asterisk" unicode="*" 
d="M260 518q-2 6 -11 44.5t-19 61.5t-25 32q-5 4 -10.5 6.5t-11.5 2t-10 -0.5t-11.5 -3t-10.5 -4.5t-12.5 -6.5t-12.5 -6q8 -36 27 -76t26 -63q-43 10 -73.5 5t-30.5 -24q1 -14 22 -18t52.5 -4.5t45.5 -4.5q-12 -12 -39 -30t-41 -30.5t-8 -22.5q9 -11 17.5 -11.5t21 9t23 20
t23 21.5t21.5 14l4 -12t5.5 -16t7 -17t8.5 -17t10.5 -14t13.5 -10t16 -3.5t19 4.5q14 6 22.5 27t2.5 35q-4 10 -18 29.5t-18 29.5q20 0 80 -7.5t76 -7.5q20 -6 28 9.5t-12 26.5q-51 8 -97 10.5t-70 5.5q47 44 78 105q1 3 1 6.5t-3 10t-15 -1.5q-12 -12 -43.5 -49.5
t-48.5 -54.5z" />
    <glyph glyph-name="comma" unicode="," horiz-adv-x="210" 
d="M58 -89q-17 -9 3 -22q25 -14 43 -3q16 12 30 32t24 48.5t2.5 66.5t-35.5 76q-10 6 -21 8.5t-19.5 2t-18.5 -4t-15 -6t-13 -7.5l-7 -4q0 -6 -4.5 -28.5t-4.5 -38.5t9 -19q46 -19 68 -14q-2 -28 -10.5 -44t-30.5 -43z" />
    <glyph glyph-name="hyphen" unicode="-" horiz-adv-x="483" 
d="M60 291q1 -4 1.5 -12.5t1.5 -12t7 -10t17 -7t32.5 -3t53.5 1.5q1 3 95.5 1.5t95.5 -1.5q11 1 26.5 10.5t24.5 21t-2.5 21t-48.5 9.5q-9 0 -64.5 1.5t-93 1.5t-82.5 -5.5t-64 -16.5z" />
    <glyph glyph-name="period" unicode="." horiz-adv-x="212" 
d="M68 -10q17 -3 50 8t43 21q8 13 4 37.5t-22 37.5q-25 19 -50.5 16.5t-40.5 -22.5q-10 -23 -8 -58t24 -40z" />
    <glyph glyph-name="zero" unicode="0" horiz-adv-x="643" 
d="M339 672q-16 1 -26 -18q-12 -21 11 -26q44 3 81.5 -24t60.5 -73t36.5 -103.5t8.5 -118t-21.5 -114.5t-54.5 -96t-91 -58q-71 -21 -124 67q-57 93 -54 235q2 176 100 286q31 35 70 60q5 4 13.5 15t16.5 27t1 28t-33 14q-9 1 -38 -9t-68 -29t-79 -56t-61 -82
q-24 -51 -39 -128t-11 -164t28.5 -161.5t86.5 -123t154 -46.5q35 1 70.5 13.5t74 46t66.5 83.5t42.5 133.5t6.5 188.5q-23 110 -81.5 169.5t-146.5 63.5z" />
    <glyph glyph-name="one" unicode="1" horiz-adv-x="270" 
d="M37 677q3 -12 11.5 -17.5t15 -7t6.5 -3.5q-10 -88 -23.5 -287.5t-6.5 -286.5q0 -44 34.5 -101t75.5 -11q22 47 32.5 244.5t10.5 307.5q4 28 5 55.5t-2 70.5t-22 80.5t-52 58.5q-6 6 -22.5 -1.5t-35.5 -34.5t-27 -67z" />
    <glyph glyph-name="two" unicode="2" horiz-adv-x="543" 
d="M79 591q11 -20 31.5 -13.5t13.5 29.5q-14 41 29.5 82t91.5 43.5t71 -42.5q10 -31 -56 -169t-141.5 -289.5t-81.5 -199.5q-5 -26 14.5 -62.5t52.5 -32.5q39 24 100 28t112 -19q44 -5 67.5 -1.5t61.5 21.5q18 7 17 29q-2 20 -18 20l-9 -2q-39 -18 -139 5q-84 30 -137 16
q-8 7 81.5 182t158.5 289q16 33 23.5 67t-0.5 79.5t-39 82.5q-24 29 -67 41t-87.5 3.5t-83.5 -30.5t-58 -64t-8 -93z" />
    <glyph glyph-name="three" unicode="3" horiz-adv-x="495" 
d="M127 205q11 11 7 21.5t-17 15.5t-22 0q-52 -31 -63 -77.5t13 -87.5q16 -32 65.5 -63.5t115 -40t127.5 39.5q17 14 39.5 47t40 83.5t17.5 101t-38.5 101.5t-117.5 83q1 1 22.5 17t41 33.5t41 49t30 64.5t-1 79.5t-42.5 94.5q-26 36 -83.5 49.5t-113 2.5t-92 -52.5
t-24.5 -102.5q0 -12 20 -14q21 -3 22 11q0 4 -1 8q-7 18 6.5 39.5t38.5 37.5t54 24.5t56.5 0t42.5 -35.5q10 -23 11 -46t-8 -44t-21 -39.5t-32.5 -39t-36.5 -34.5t-40 -32q-2 -1 -15.5 -10.5t-20 -14.5t-12.5 -15.5t-1 -19t23 -20t51 -22.5q11 -3 32.5 -24.5t41.5 -57.5
t28.5 -76.5t-12 -87.5t-73.5 -84q-35 -22 -67 -12.5t-54 31.5t-18 56t40 62z" />
    <glyph glyph-name="four" unicode="4" horiz-adv-x="490" 
d="M386 390q0 18 -2 58t-2 63q0 20 -1.5 35t-7 33.5t-17.5 33.5t-31 27q-19 10 -26.5 7.5t-13.5 -21.5q-14 -45 -33 -233q-71 -9 -140 10q-14 7 6.5 65t65 155.5t55.5 126.5q9 20 -2 41t-39 30q-23 8 -35.5 -1t-23.5 -32q-6 -12 -19.5 -38.5t-24.5 -47.5t-25 -50.5
t-24.5 -53.5t-20 -51.5t-14 -48.5t-4 -39.5t7.5 -30.5q6 -8 15.5 -28t17 -29.5t29 -19t54.5 -11.5q3 0 112 -8q0 -2 -0.5 -34.5t-1 -69t0 -84t2 -85.5t6 -67t11.5 -35q6 -5 14 -16t16 -17.5t20 -7.5q45 0 45 49q4 52 11.5 185.5t11.5 185.5q14 0 24.5 -1.5t21.5 -0.5
q10 1 16.5 14.5t3.5 26.5t-16 13q-4 0 -21.5 1t-21.5 1z" />
    <glyph glyph-name="five" unicode="5" horiz-adv-x="530" 
d="M376 772q12 -12 13.5 -22t-4 -21.5t-5.5 -12.5q-4 -22 16.5 -23.5t29.5 15.5q24 51 15 75t-27 31t-30 2q-54 0 -155.5 -10.5t-144.5 -33.5q-10 -9 -17 -19.5t-12.5 -24t-8.5 -23t-5.5 -28t-3.5 -26.5t-3 -30.5t-3 -29.5q-2 -19 -3 -30.5t-0.5 -36.5t4 -40.5t13 -34
t24.5 -26t40.5 -7.5t59.5 12q2 0 16.5 2.5t19 3t19.5 2.5t21.5 2h20t21 -2t18 -5t17 -8t13.5 -12t11 -16q7 -29 7.5 -70.5t-15 -89.5t-38.5 -90t-64.5 -72.5t-91.5 -35.5q-22 -4 -39 14.5t-20.5 52t12.5 78.5q7 16 -9 22q-20 6 -32 -15q-19 -64 -16 -98q13 -118 218 -112
q29 1 70.5 24t83 70t53.5 116.5t-18 163.5q-9 24 -20 43t-36 39.5t-57.5 30.5t-86 8.5t-121.5 -18.5q10 52 32 153q1 4 8 25.5t7 29.5t-1.5 24t-13.5 27.5t-34 20.5q78 32 252 36z" />
    <glyph glyph-name="six" unicode="6" horiz-adv-x="509" 
d="M160 304q0 1 37 79.5t78 183t48 163.5q0 54 -45 71q-31 15 -48 -26q-2 -3 -33 -50t-52.5 -88.5t-51.5 -107.5t-50 -148t-27 -171q-3 -25 -2.5 -50.5t5.5 -56.5t16 -55.5t30 -48.5t47.5 -35t68.5 -15t93 11q96 26 151 121q50 86 32 165q-18 80 -100 96q-78 15 -197 -38z
M408 180q-2 -24 -15.5 -54.5t-40 -63t-75 -48t-109.5 -2.5q-30 11 -39.5 86.5t24.5 138.5q56 31 100 44.5t70.5 10.5t45 -14t25.5 -28t11 -32.5t3 -26.5v-11z" />
    <glyph glyph-name="seven" unicode="7" horiz-adv-x="486" 
d="M342 725q5 -4 -6.5 -25t-36.5 -70t-53.5 -115t-62.5 -178t-59 -241q-10 -54 -10 -112q0 -13 32 -42q49 -44 67 -14q5 8 7 20q22 103 115.5 392.5t94.5 292.5q27 131 -91 149q-48 7 -147.5 5t-136.5 -16q-18 -8 -19 -32t18 -26q9 -1 44 5t86 9.5t158 -2.5z" />
    <glyph glyph-name="eight" unicode="8" horiz-adv-x="571" 
d="M200 427q-48 -8 -86.5 -47.5t-58.5 -93t-19.5 -114.5t21.5 -112t73.5 -84.5t128.5 -33.5q23 -1 52 4t66.5 22t67.5 43t51 73.5t21 108.5q1 34 -11.5 77.5t-46 88.5t-81.5 60q33 24 53.5 44.5t38 61t13.5 88.5q-9 79 -68 129.5t-130 28.5q8 6 7 22t-14 16
q-36 1 -70.5 -17.5t-59 -49t-43 -68.5t-21.5 -77.5t5 -74.5t37 -60.5t74 -34.5zM447 193q0 -21 -8.5 -48t-27 -58.5t-57 -56.5t-90.5 -33q-20 -3 -47 28t-44.5 81t-21 105t28.5 107.5t99 81.5q75 -4 121.5 -56.5t46.5 -150.5zM283 735q58 29 103.5 -31.5t41.5 -121.5
q-2 -28 -17.5 -56t-37 -46.5t-45.5 -31.5t-43.5 -12t-30.5 13q-17 22 -29 48.5t-19.5 66t11.5 85t66 86.5z" />
    <glyph glyph-name="nine" unicode="9" horiz-adv-x="522" 
d="M296 401q15 19 7 37.5t-32 6.5q-13 -9 -41.5 -13.5t-61 -2.5t-58.5 24t-29 61q-8 93 47 168t125 87q26 3 50.5 -16t41.5 -60.5t22 -98.5t-11.5 -139.5t-55.5 -173.5q-47 -107 -121 -236q-24 -41 -25 -61q-1 -12 3 -26q3 -1 20 -10t30 -13.5t33.5 1t36.5 26.5q1 2 25.5 32
t40.5 57.5t42 79t51 129t46 175.5q7 28 9 65t-1 83t-19 89t-42.5 77.5t-73.5 53.5t-109 14q-90 -7 -159 -101t-62 -199q2 -26 10 -51.5t28.5 -49.5t49.5 -36.5t76.5 -8.5t106.5 30z" />
    <glyph glyph-name="colon" unicode=":" horiz-adv-x="241" 
d="M81 -8q17 -3 50 8t43 21q8 13 5.5 45.5t-19.5 45.5q-25 19 -55.5 14.5t-45.5 -24.5q-9 -23 -4.5 -64t26.5 -46zM182 393q3 18 -9.5 50.5t-23.5 41.5q-17 6 -45.5 -0.5t-40.5 -25.5q-17 -26 -14 -51t24 -39q23 -9 64 -3.5t45 27.5z" />
    <glyph glyph-name="semicolon" unicode=";" horiz-adv-x="248" 
d="M71 354q17 -4 54 8.5t47 22.5q8 13 3.5 44t-22.5 44q-25 19 -54.5 15.5t-44.5 -23.5q-10 -23 -7.5 -64.5t24.5 -46.5zM78 -89q-17 -9 3 -22q25 -14 43 -3q23 17 45 55t22 86t-44 74q-55 19 -96 -3q0 -6 -4.5 -28.5t-4.5 -38.5t9 -19q38 -15 68 -9q-3 -47 -41 -92z" />
    <glyph glyph-name="question" unicode="?" horiz-adv-x="503" 
d="M104 656q-18 30 -0.5 69t69 59.5t145.5 -8.5q21 -9 28 -42.5t-8 -76.5t-52 -71q-26 -18 -50.5 -38.5t-54.5 -50.5t-51.5 -63.5t-36 -71t-13 -79.5t21.5 -83q16 -28 32.5 -41.5t42.5 -13.5q11 0 17 5t8.5 23t-7.5 53q-20 45 187 262q47 66 62 99q51 121 -41 220
q-32 28 -84 40.5t-105 4t-97.5 -31.5t-65 -69t-4.5 -106q10 -33 37 -24q19 7 22 25q1 5 -2 10zM167 -61q29 -2 50 14.5t28 50.5q4 19 -5.5 27t-31 11.5t-28.5 6.5q-20 4 -31.5 3.5t-18.5 -14t-9.5 -25t-3.5 -30.5q0 -21 11 -29.5t39 -14.5z" />
    <glyph glyph-name="A" unicode="A" horiz-adv-x="665" 
d="M313 138l-3 -13q-2 -13 -3.5 -30.5t-2 -40.5t5 -45.5t16 -43.5t31.5 -37.5t51 -24.5q10 -6 26.5 -3.5t36.5 6t42.5 19.5t45 36t44 55t38.5 77.5t30.5 103.5t18.5 132q0 1 -0.5 3.5t-2 8t-4 9t-5 6.5t-7 1t-8.5 -9q-14 -97 -38.5 -174t-51 -120t-54.5 -70.5t-49.5 -35
t-35.5 -3.5q-7 2 -11.5 8.5t-6 19.5t-1 27.5t3 39t6 47t9.5 58t12 67t14 78.5t15 87q8 32 -18.5 76.5t-51.5 50.5q-11 0 -25 -12q-135 -367 -165 -419q-12 -20 -32 -37t-42 -25t-42 1.5t-30 40.5q-4 30 11 121.5t42.5 201.5t75 219.5t99.5 161.5q8 -1 24.5 5.5t40.5 -34.5
t35 -125q11 -4 20 4t8 30q-1 24 -8 49.5t-23 55.5t-49.5 48t-80.5 15q-57 -8 -105.5 -62t-79 -125.5t-53.5 -157t-33.5 -145.5t-13.5 -101q-1 -24 -2.5 -57.5t7 -70.5t22.5 -68t44.5 -49.5t71.5 -15.5q2 0 14 3t18.5 4.5t21 8t24.5 14t25.5 21.5t28.5 31.5t29 44t30 58.5z
" />
    <glyph glyph-name="B" unicode="B" horiz-adv-x="581" 
d="M120 437q1 2 15.5 41t23 68.5t4.5 40.5q-10 18 -36.5 45t-35.5 38q-5 3 -11.5 2t-13.5 -14t-9 -35q-63 -184 -63 -410q12 -10 11 -15.5t-19 -24.5q-27 -28 -30.5 -78.5t15 -101t73 -88.5t132.5 -39q71 5 126 26.5t87 53.5t51.5 73.5t19 86.5t-9.5 92q-14 45 -33 80
q142 36 184 44q13 12 3.5 21t-24.5 9l-204 -37q-11 17 -34 32t-41 21l-18 7q85 48 119 111t34 149q0 11 -4.5 30.5t-19.5 47t-38 51.5t-64 39t-93 14.5t-131 -26.5t-172 -79q-25 -11 -15 -28q10 -14 24 -8q3 1 6 4q13 14 54.5 37t99 42t113.5 24t100 -24t55 -94
q-2 -87 -65 -140.5t-166 -87.5zM377 179q-6 -39 -13.5 -67.5t-25.5 -65.5t-43 -61t-69.5 -42t-102.5 -20q-20 -1 -49 15.5t-51.5 45t-31.5 61.5t15 71.5t83 68.5q7 11 63.5 29t125 36.5t83.5 23.5q8 -10 12 -33.5t4 -42.5v-19zM91 236q4 19 6 57t6 54q0 4 27 5.5t61.5 0
t53.5 -5.5q36 -9 96 -41q-6 0 -250 -70z" />
    <glyph glyph-name="C" unicode="C" horiz-adv-x="534" 
d="M415 531q-2 -16 3 -21.5t13.5 -0.5t17.5 17q44 190 -59 218q-99 21 -191.5 -46t-142.5 -181t-66 -235.5t36.5 -220.5t165.5 -124q5 -1 13.5 -1.5t34.5 3.5t52 14.5t62.5 38t68 67.5t66 109t60.5 157q5 15 1 21t-12 6l-7 1q-66 -159 -111 -228q-87 -133 -193 -135
q-101 10 -105 192.5t74.5 359.5t179.5 173q23 -2 33.5 -42t8.5 -80t-3 -62z" />
    <glyph glyph-name="D" unicode="D" horiz-adv-x="785" 
d="M-53 708q0 -1 0.5 -3.5t2 -7t4.5 -7.5t9.5 -2.5t14.5 5.5q153 89 261 70q41 -3 88.5 -38t89.5 -93.5t65.5 -149t13.5 -191.5q-71 -10 -184.5 -49.5t-141.5 -53.5q32 238 43 340q6 26 -37 63t-75 44q0 -17 -22 -270q-12 -104 9 -184q3 -9 14 -18q5 -4 -9 -17
q-7 -6 -29 -25l-13 -13t-18.5 -22.5t-20 -31t-9.5 -33.5t3 -37t27 -33.5t55 -30.5q11 -6 36 -11.5t65.5 -6t84.5 6.5t94 31t94.5 62.5t85.5 106.5t67 157q36 -1 100.5 16t81.5 41q13 17 5 30q-6 9 -18 0q-31 -23 -82 -38t-78 -9q0 1 1 26t1 48t-2 52.5t-8 47.5
q-24 93 -70.5 160.5t-104.5 102.5t-125.5 50.5t-133.5 7.5t-127 -31.5t-108 -61.5zM490 253q-9 -85 -50 -155t-97 -106.5t-114.5 -51t-108 5t-71.5 68.5q-4 12 18.5 38t66.5 57.5t98.5 61t123.5 52.5t134 30z" />
    <glyph glyph-name="E" unicode="E" horiz-adv-x="564" 
d="M130 449q-32 148 55 260q56 72 128 90q64 16 85 -26q17 -35 -7 -100q-7 -6 -1 -23q8 -19 23 -2q14 12 24 45t7.5 71t-26.5 69t-77 39t-145 -20q-74 -36 -120 -91.5t-59.5 -111t-9.5 -109.5t24.5 -93.5t47.5 -55.5q-36 -13 -58 -95q-30 -110 1 -208q42 -131 173 -141
q60 -4 135 17q172 65 236 238q20 54 27 116q4 27 -13 38q-12 7 -15 -6q-47 -245 -214 -329q-14 -7 -46 -6.5t-72 13.5t-67.5 49.5t-32.5 101.5t34 170q14 -1 51 6t81 24.5t61 47.5t-9 74q-11 15 -23.5 25t-24 14.5t-26 3t-25.5 -4t-26 -11.5t-23.5 -14t-22.5 -17.5
t-19 -17.5t-17.5 -17t-13.5 -13zM181 387q9 33 64.5 74.5t70.5 26.5q20 -32 -14 -57t-78 -35z" />
    <glyph glyph-name="F" unicode="F" horiz-adv-x="533" 
d="M-2 316q-1 -2 -1.5 -4t-1.5 -8.5t1.5 -9t8.5 -4.5t19 4q16 11 46 13.5t67 -7.5t63 -34q-6 -45 -17 -120t-16 -120q-10 -65 -49 -101q-34 -32 -52 0q-15 27 -9 94q6 19 4 27t-20 -1q-30 -26 -17 -97.5t60.5 -96t137.5 53.5q23 28 35.5 50t32.5 92.5t35 180.5
q41 -14 119.5 13t110.5 85q3 17 -2 24.5t-12.5 6t-11.5 -6.5q-37 -40 -97 -63.5t-101 -13.5q2 26 14 144t14 194q10 4 24 13t34 26.5t31.5 39t17 50t-8.5 60.5q-2 16 -34 37q-61 41 -110 3q-56 -45 -74 -192q-28 -5 -71.5 6.5t-88.5 27t-94 26.5t-100 2.5t-94 -42.5
q-16 -28 0 -33q10 -4 19 8q51 34 116 31t115.5 -22t106.5 -35.5t88 -8.5q-1 -80 -29 -301q-35 37 -108.5 37t-100.5 -28zM357 655q-6 37 1 93.5t28 63.5q15 5 32 -20q27 -43 -5 -89q-19 -27 -56 -48z" />
    <glyph glyph-name="G" unicode="G" horiz-adv-x="610" 
d="M354 454q-12 -25 -39 -131.5t-31 -119.5q-11 -17 -42.5 -29.5t-64.5 -13t-53 32.5t-9 99q55 378 198 453q43 21 67 -67q13 -47 19 -128q1 -1 2.5 -3t6 -5t8.5 -3t8.5 4.5t7.5 15.5q3 13 3.5 37t-4.5 56.5t-16 62t-34 54.5t-55 33q-11 4 -29.5 5t-48.5 -5.5t-60.5 -22
t-63 -50.5t-59 -84.5t-46.5 -130.5t-27 -182q-2 -35 8 -80t33.5 -87t57 -66.5t83.5 -12.5t107 69q-2 -20 -3.5 -44t-3.5 -44q-8 -6 -21 -17t-47.5 -44.5t-62.5 -67t-54.5 -79.5t-35 -86.5t7 -84t61.5 -76.5q1 0 15.5 -7.5t29.5 -13.5t37 -12.5t42.5 -5.5t40.5 8t36.5 28
t25.5 54q6 15 18.5 106.5t26.5 199t21 142.5q7 -4 23.5 0.5t41 19.5t50 38.5t53 64t47.5 89.5q7 15 -5 28q-9 9 -15 -1q-24 -44 -51.5 -80t-49.5 -56.5t-41.5 -34t-30 -18t-14.5 -4.5q0 1 8.5 34.5t16 71t7 74t-14.5 46.5q-40 41 -86 71zM273 15q-1 -11 -3 -49
q-11 -250 -49 -314q-31 -54 -82 -6q-39 36 -48 75.5t13 86t61.5 94t107.5 113.5z" />
    <glyph glyph-name="H" unicode="H" horiz-adv-x="641" 
d="M-6 315q-10 -57 -15.5 -145.5t4.5 -152.5q2 -21 47.5 -21t49.5 22q5 18 9 50.5t11.5 99t15.5 128.5q48 -37 109.5 -56.5t110.5 -20.5q3 -11 2 -35t-4.5 -77.5t-3.5 -76.5q0 -34 13 -65.5t34.5 -50.5t47 -25.5t54 10.5t51.5 58q5 23 -4 25t-18 -10q-67 -85 -70 66
q-1 70 11 174q1 0 12 2.5t21 5.5t27 8t32 11t33 15.5t32.5 19.5t28.5 24t24 30q5 11 2.5 18.5t-8.5 8t-11 -2.5q-45 -52 -103 -80t-86 -26q29 268 39 376q10 94 -12 130t-71 30q-28 -67 -68 -534q-41 1 -86 18t-83 37.5t-47 23.5q3 15 12 78.5t14 88.5q46 270 -24 354
q-30 36 -64 22q-20 -8 -21 -27q0 -1 2 -29t0.5 -69t-8.5 -82q-6 -62 -15 -137.5t-17.5 -137.5t-9.5 -73z" />
    <glyph glyph-name="I" unicode="I" horiz-adv-x="479" 
d="M153 157q-1 2 -20 34t-38 69.5t-35.5 103t-18.5 134t20.5 163t73.5 190.5q27 28 39 30q20 3 31 -36q2 -5 3 -11q0 -6 5 -66t5.5 -113.5t-2.5 -134t-19 -174.5t-44 -189zM266 97q42 0 77.5 13t59 33t42.5 44t29.5 48.5t17 44.5t8.5 32l3 13q0 22 -6.5 28.5t-13.5 2.5
l-7 -5q-12 -55 -32.5 -96.5t-42 -63.5t-46 -35t-43 -16t-34.5 -1q39 152 55 295q9 46 3.5 137.5t-16.5 183.5t-59.5 139t-124.5 3q-7 -7 -23 -33t-37 -72.5t-39.5 -103t-25.5 -127t0 -141t40.5 -148.5t92.5 -146q-3 -18 -12 -50.5t-24 -75t-38.5 -68t-47.5 -15.5
q-20 9 -26.5 69.5t6.5 105.5q3 21 -14 24t-24 -18l-1 -6q0 -4 -4 -31.5t-5 -47.5t3.5 -50t17 -50t40.5 -36.5t69 -19.5h6q7 0 13 1.5t16 4.5t20 10.5t22.5 18.5t25 29.5t26 42t27 58t26.5 75.5z" />
    <glyph glyph-name="J" unicode="J" horiz-adv-x="490" 
d="M101 196q21 -6 26 1t-1 17l-5 11q-32 23 -63.5 74t-51.5 119.5t-25.5 141t17 148t73.5 131.5q13 21 47 8q54 -21 80 -111q28 -92 13 -234q-22 -307 -43 -392q-36 -34 -77 -80.5t-84 -111.5t-67 -124.5t-16.5 -117t57.5 -90.5q15 -11 35 -15t47 2.5t54.5 25.5t56 61
t52 102t43 155.5t28.5 214.5q80 38 130 80.5t84 109.5q14 23 1 36q-11 12 -23 -9q-18 -41 -73.5 -94t-116.5 -83q85 448 -31 630q-58 93 -149 92q-42 0 -76 -22q-10 -8 -25.5 -33t-32.5 -66.5t-29.5 -91.5t-13.5 -111.5t11.5 -122.5t50 -127.5t97.5 -123.5zM166 52
q-1 -5 -5 -32q-76 -478 -187 -394q-5 4 -10 9q-15 28 -13.5 62.5t12 67.5t30.5 68.5t41 65.5t45 58.5t42 47.5t31 33z" />
    <glyph glyph-name="K" unicode="K" horiz-adv-x="643" 
d="M130 372q0 1 4 52.5t5 96t-1 102.5t-14.5 102t-35.5 64q-98 86 -96 -19q1 -39 16 -106q14 -51 8.5 -172t-17.5 -224.5t-26 -212t-15 -133.5q-3 -35 3.5 -49t40.5 -27q24 -6 51 -2t30 26q10 55 29 346q19 -66 56 -136.5t96 -129.5t119 -64q41 -3 85.5 24t85.5 79t73 138.5
t44 192.5q3 24 -8 30.5t-21 -2.5q-21 -105 -50 -180.5t-53.5 -111.5t-52.5 -55t-42.5 -21.5t-27.5 -0.5q-54 8 -124 99.5t-130 239.5q211 107 397 499q9 22 -5 34q-15 10 -28 -13q-135 -247 -237 -358t-159 -108z" />
    <glyph glyph-name="L" unicode="L" horiz-adv-x="840" 
d="M225 780q41 -69 85 -102.5t126 -30.5q-10 -48 -24.5 -97.5t-25.5 -81t-29 -81.5l-27 -75q-117 69 -222 18q-78 -37 -107 -118q-35 -95 22 -178q37 -54 109 -88q143 -56 276 210q50 -75 77 -102q81 -82 201 -82q57 4 110 102.5t70 252.5q4 29 -13 33q-11 1 -13 -11
q-3 -8 -14.5 -65.5t-25.5 -110.5t-49 -100t-82 -49q-31 0 -70 38t-86.5 103t-57.5 77q33 95 77 244t45 174q15 2 42 10.5t61.5 28.5t56.5 45.5t20 66t-40 86.5q-11 14 -32 20.5t-51 -1t-61 -29.5t-64 -71.5t-58 -120.5q-73 -17 -124 24t-74 95q-13 31 -28 21t-9 -36
q2 -10 9 -19zM36 97q-7 14 -7.5 34.5t4.5 44.5t16.5 47t27.5 43t40 31.5t52 14t65 -11t77 -43.5q-23 -79 -76 -156q-86 -123 -154 -67q-24 20 -45 63zM587 699q0 31 28 98q40 94 74 73q5 -3 10 -9q14 -17 15 -40.5t-10.5 -47t-42 -44t-74.5 -30.5z" />
    <glyph glyph-name="M" unicode="M" horiz-adv-x="875" 
d="M2 841q-2 -14 -1 -28t2.5 -52t0.5 -72q-10 -308 -5 -489q2 -90 26 -163q30 -97 69 0q2 4 3 7t5.5 21t7.5 31.5t6.5 35.5t5.5 48t2 55q125 398 164 397q13 -3 14 -235t-6 -320q-1 -14 12.5 -37.5t30.5 -39.5t35.5 -2.5t26.5 64.5q2 18 1.5 107t8 172.5t32.5 145.5
q5 15 25.5 60.5t47 90t38.5 43.5q19 -1 21.5 -52.5t-5 -135.5t-7.5 -105q-1 -18 -5 -67.5t-6 -88.5t-4 -93.5t2 -96t12.5 -82t26 -66.5t42.5 -34q97 -32 171 87t95 373q3 27 -13 33q-9 4 -11 -6q-14 -195 -86 -343q-46 -94 -83 -98q-37 -5 -40 93q-5 199 4 302q0 18 5 77.5
t5.5 107.5t-6 104t-32.5 94t-70 49q-4 -1 -10 0.5t-16 -3.5t-21 -12t-24.5 -24.5t-27 -39.5t-29 -58.5t-29.5 -81.5q0 123 -75 168q-37 22 -78 -18.5t-71.5 -112.5t-49 -123.5t-23.5 -74.5q-3 31 -1 90t5.5 163t3.5 143q0 45 -37.5 81t-84.5 11z" />
    <glyph glyph-name="N" unicode="N" horiz-adv-x="678" 
d="M477 -114l-6 -1q-35 16 -15 402q6 106 16 237q4 39 -14 92.5t-58.5 84.5t-87.5 0q-43 -41 -110 -139t-78 -122q12 198 14 242q0 54 -40.5 103.5t-89.5 37.5q-4 -3 -3.5 -23t2.5 -52.5t0 -79.5q-8 -138 -8.5 -324t6.5 -294q4 -62 32 -110q30 -50 51 -3q25 54 28 227
q0 2 3 22.5t6.5 37t10 46.5t15 57.5t20.5 62t29 68t37 68.5t47.5 70t58.5 66q6 5 9 -6.5t3 -38t-1 -56.5t-4 -72t-5 -73t-5.5 -70.5t-4.5 -54.5q-13 -188 10 -345q3 -16 12.5 -37.5t28 -43.5t40.5 -33t52.5 0t61.5 49q78 103 119 243t45 202q1 12 -5.5 18t-13.5 6l-7 -1
q-21 -97 -43.5 -173t-40 -119.5t-38.5 -78.5t-32 -47t-27.5 -27t-19.5 -18z" />
    <glyph glyph-name="O" unicode="O" horiz-adv-x="686" 
d="M552 325q13 88 3 186t-43.5 179.5t-94 113t-147.5 -15.5q-1 19 -23 32.5t-42 15.5t-26 -1q-15 -5 -43 -46.5t-58.5 -106.5t-54 -161t-25.5 -193q-1 -33 2.5 -72t13 -89.5t26.5 -94t43 -84.5t62 -62.5t84 -27t110 21.5q2 1 16.5 7.5t21.5 11t23.5 14.5t27 22.5t26 30.5
t26.5 42t23.5 54.5t22 70.5t16.5 87q72 -5 161 58q16 14 5 26.5t-25 3.5q-6 -3 -21.5 -11t-21 -10t-19.5 -5t-30 -2t-39 5zM481 279q-4 -29 -8.5 -52.5t-19.5 -74t-32.5 -85.5t-49 -66t-69.5 -37q-8 -4 -23 -1t-33.5 5.5t-38 18.5t-36 37.5t-28.5 62.5t-15 94
q-7 100 17 231.5t53 165.5q62 -130 120 -196t163 -103zM492 587q16 -100 -3 -249q-88 21 -170 125.5t-84 164.5q-1 33 33 83q50 73 104 59q70 -18 120 -183z" />
    <glyph glyph-name="P" unicode="P" horiz-adv-x="522" 
d="M155 373q6 15 11.5 82t-0.5 151t-29 121q-6 3 -21.5 1t-34.5 -17t-23 -36q-16 -50 -25 -101t-12 -85.5t-6.5 -93.5t-6.5 -96q1 -1 -2 -102t-3.5 -193.5t7.5 -126.5q0 -33 40 -45.5t60 -3.5q7 3 17.5 131t18.5 254l7 126q53 -9 97.5 -9.5t76.5 7t58 18.5t43 29.5t29 36
t19.5 40.5t11 41t6.5 41q1 11 1.5 24.5t-1 34t-7 40t-15.5 43t-26 43t-39.5 40t-56 34t-74.5 25t-95.5 12.5t-119.5 -3q-70 -6 -130 -37.5t-87 -62.5q-8 -9 -10.5 -16.5t0 -12.5t7.5 -7.5t11.5 -1.5t12.5 5q9 6 28 20t24 17.5t19 12.5t22 11.5t23.5 8t32 9t39.5 7.5
q40 4 84 2.5t88 -18t78.5 -40.5t55 -66t17.5 -95q-2 -34 -6 -60t-11 -51.5t-18 -42.5t-28 -30.5t-39 -19.5t-52 -5t-67 10z" />
    <glyph glyph-name="Q" unicode="Q" horiz-adv-x="811" 
d="M842 325l-7 28q-10 22 -23 -2q-30 -176 -95 -255q-63 -77 -124 -2q-21 26 -41 72q1 3 4 11q110 328 -14 516q-24 36 -56 65q-107 92 -218 56q-45 37 -72 37q-25 0 -43 -23q-54 -78 -102 -194q-50 -131 -53 -312q-2 -104 22.5 -184t91.5 -144q16 -16 36 -30.5t59 -26.5
t80 -8.5t97.5 35t112.5 92.5q1 -1 4.5 -8.5t6.5 -12.5t9.5 -14.5t13 -16t17 -14t22 -12t27 -7.5t32.5 -2q48 4 94 58t76.5 133.5t42.5 164.5zM511 219q-93 136 -232 52q-34 -21 -19 -32q10 -8 25 1q4 0 22.5 3.5t27.5 3.5t28 -6t33 -19.5t33.5 -42t38.5 -69.5
q-61 -107 -171 -110q-102 0 -146 105q-64 154 28 494q32 92 90 162q6 9 43 8t86 -20.5t89 -78t51 -166.5t-27 -285z" />
    <glyph glyph-name="R" unicode="R" horiz-adv-x="635" 
d="M249 335q77 1 139.5 63t70.5 133q1 13 1.5 27.5t-2 39t-8.5 47t-19.5 48.5t-32.5 47t-50.5 38.5t-71.5 27.5t-96.5 10t-123.5 -12q-65 -11 -119 -43.5t-79 -62.5q-12 -13 -10.5 -24t11 -12t19.5 4q11 8 34.5 25.5t31 22l25 15t35.5 17t44 14.5q106 25 199 -30t102 -172
q-20 -179 -206 -186q6 14 11 76.5t0 141t-27 112.5q-6 2 -20.5 0.5t-32 -15t-21.5 -33.5q-14 -59 -20.5 -116.5t-9.5 -131.5t-7 -115q1 -1 -4 -95t-8 -180.5t4 -117.5q6 -60 21.5 -81.5t32.5 -6t32 57.5q5 15 17 133t21 229l10 111q19 -19 34.5 -55.5t26.5 -76.5t23.5 -85
t30 -83.5t41.5 -68.5t62.5 -44.5t88.5 -7.5q36 8 64.5 27.5t57.5 62t53 121.5t42 194q0 31 -16 32q-10 1 -13 -12q-5 -67 -33.5 -155t-77 -158.5t-96.5 -68.5q-40 2 -62 27t-30.5 66t-14.5 86.5t-24 99.5t-50 93z" />
    <glyph glyph-name="S" unicode="S" horiz-adv-x="646" 
d="M489 308q-9 33 -36 102t-47 120t-17 57q116 209 -8 253q-6 -3 -27 1.5t-41.5 -15.5t-36.5 -50t-11.5 -102t34.5 -171q3 -10 -36.5 -89t-95.5 -174t-127.5 -177t-123.5 -93q-16 -9 -7 -20q12 -12 43 2q46 20 93 67t88.5 110.5t72 116t63.5 116.5t42 80q2 -25 22.5 -85
t24.5 -79q-7 -4 -19.5 -11t-46.5 -29.5t-62.5 -46t-57.5 -59t-42 -69.5t-6.5 -75.5t39.5 -80.5q34 -32 86 -40t104 11.5t94.5 67.5t57 127.5t-8.5 192.5q4 2 40 10t68 21.5t57 35.5q9 10 1.5 20.5t-19.5 2.5q-34 -21 -89.5 -32.5t-64.5 -15.5zM362 233q-1 -18 5.5 -92.5
t-3.5 -94.5q-5 -25 -21.5 -52t-39.5 -47t-47 -31t-46 -4.5t-35 32.5q-23 48 -13 91.5t42.5 79.5t67.5 62.5t62 40.5zM369 627q-47 165 13 182q20 -11 25.5 -33.5t0 -47.5t-14 -48t-16.5 -38z" />
    <glyph glyph-name="T" unicode="T" 
d="M456 524q31 -5 61.5 5.5t51.5 31.5t36.5 49t17.5 58.5t-5.5 57.5t-33.5 48t-66 29q-31 7 -57 -1t-41.5 -23.5t-29 -40t-19.5 -44.5t-12.5 -43.5t-9.5 -30.5q-37 21 -86 37t-110.5 24.5t-126 -9t-114.5 -63.5q-15 -15 3 -25q11 -7 15 -1q63 71 200.5 66t210.5 -63
q0 -9 -43 -329.5t-33 -350.5q38 -111 86 -123q25 -6 34 17q2 5 2 11q0 7 2.5 56.5t6.5 109.5t11 142.5t19.5 189t29.5 215.5zM460 568q14 135 43 167q19 21 45 9q31 -11 33 -59t-31.5 -87.5t-89.5 -29.5z" />
    <glyph glyph-name="U" unicode="U" horiz-adv-x="722" 
d="M384 178q-1 -7 -2 -19.5t-2 -48t0.5 -67.5t8 -71.5t17.5 -67.5t31.5 -47t48.5 -18q89 2 169 139t91 345q0 20 -7.5 28t-21.5 -3q-7 -90 -28.5 -171t-48 -136.5t-55.5 -95.5t-53 -57.5t-38 -12.5q-7 4 -8.5 39t1 92t7.5 122.5t12 140.5t13 136t11.5 118.5t7.5 78.5
q0 25 -46 58q-46 34 -64 20l-5 -7q-6 -38 -11.5 -137.5t-14 -183t-22.5 -113.5q-31 -86 -107 -186q-75 -99 -107 -85q-8 5 -12 17q0 2 -4.5 19.5t-7.5 36.5t-7 53t-3.5 80t3 106t12 143t24.5 179q12 48 -2 99t-46.5 78t-68.5 13q-4 -14 -2 -37t0.5 -78.5t-10.5 -103.5
q-35 -199 -40 -280q-13 -75 1 -185q23 -180 108 -195q51 -8 120 46q36 25 85 90.5t73 128.5z" />
    <glyph glyph-name="V" unicode="V" horiz-adv-x="549" 
d="M247 -66q-91 388 -113 599q-21 118 -95 198q-47 51 -74 43q-24 -7 -7 -65q25 -85 50 -219q4 -21 17 -89.5t18.5 -98.5t17.5 -89.5t19.5 -93t17.5 -76t19 -70.5t17 -47q16 -31 55 -64q74 -64 96 10q3 10 5 22q0 2 4.5 17.5t11 38t17 57t25 79t32 98.5t41 121.5t50 141.5
t60.5 164.5t71 185.5q0 22 -13.5 31.5t-23.5 -2.5q-19 -48 -81.5 -196t-88.5 -216.5t-70 -203.5t-78 -276z" />
    <glyph glyph-name="W" unicode="W" horiz-adv-x="662" 
d="M178 80q-4 -5 -8 30q-5 51 -16 252q-5 100 -7 133q-2 13 -4 44t-8.5 61t-22.5 72q-20 51 -69 74q-41 19 -56 -2q-7 -10 -3 -28q9 -31 16.5 -63.5t12 -56.5t8.5 -59t5.5 -51.5t4 -54.5t3.5 -50q11 -159 38 -362q7 -45 40 -97q45 -71 75 -23q5 8 10 20q11 29 18.5 78.5
t9.5 57.5q12 45 37 116.5t44 120.5l19 49q5 1 8 -15t5.5 -45t5 -65t8 -79t13.5 -83.5t23.5 -81.5t35.5 -71q13 -13 34 -18.5t38.5 8.5t15.5 51q-2 47 27 211t85.5 358t115.5 272q6 15 -2.5 28.5t-21 14.5t-21.5 -12q-40 -53 -77 -147t-61 -190.5t-42.5 -185.5t-30 -146
t-14.5 -59q-6 0 -10 60t-21 138t-52 112q-6 4 -17.5 14.5t-18.5 15.5t-18 4t-20 -13q-35 -62 -81.5 -194.5t-53.5 -142.5z" />
    <glyph glyph-name="X" unicode="X" horiz-adv-x="615" 
d="M403 -136q-5 0 -12 17.5t-15 51.5t-14.5 67.5t-15 82.5t-13.5 79.5t-12.5 75t-8.5 53.5q27 24 126.5 173.5t134.5 214.5q19 28 1 36q-16 7 -31 -12q-1 -2 -3 -5q-173 -264 -245 -357q-47 390 -180 450q-32 22 -65 1q-24 -15 -16 -29q1 -2 2 -3q27 -27 77 -191.5
t75 -345.5q-18 -33 -102 -143t-155 -197q-18 -23 0 -38q15 -13 29 2q161 211 238 314q1 -2 22 -95t53 -153t84 -80q48 -16 78 -4q125 47 208 493q5 37 -18 36q-12 -1 -12 -7q-1 -2 -11.5 -56t-28.5 -123t-41.5 -140t-58 -119.5t-70.5 -48.5z" />
    <glyph glyph-name="Y" unicode="Y" horiz-adv-x="565" 
d="M305 225q-3 -13 -8 -69.5t-12 -87.5q-6 -7 -40 -43t-55.5 -60t-50.5 -65.5t-40.5 -73.5t-10.5 -68.5t25 -65.5q7 -9 26 -20.5t47 -20.5t59 -12t62 8t56.5 34.5t43 73t19.5 118.5q11 192 9 219q38 27 83.5 93t67.5 139q6 15 -5 29q-11 11 -20 -4q-24 -55 -54.5 -105
t-49.5 -73l-19 -23q5 57 7.5 204t-5.5 279q-3 41 -33.5 60t-64.5 19q-21 -288 -35 -412q-47 -110 -93 -156.5t-69.5 -42t-29.5 23.5q-15 39 -6 164t36 265q7 36 7 82t-8.5 96.5t-41 77.5t-84.5 13l4 -25q5 -25 8 -49.5t1.5 -70.5t-9.5 -94q-78 -349 45 -484q9 -12 19 -21.5
t35 -17.5t50 1t61.5 50t72.5 115zM287 9q1 -38 0.5 -73.5t-5 -82t-13.5 -77t-25 -59.5t-39.5 -29t-57.5 15q-23 24 -24.5 56t10.5 61t37.5 63t45.5 55t44.5 45t26.5 26z" />
    <glyph glyph-name="Z" unicode="Z" horiz-adv-x="610" 
d="M361 373l8 6q54 33 82 90.5t24.5 116.5t-51 112t-132.5 76q-28 8 -58 0.5t-61 -22t-49.5 -39.5t-24 -51t15.5 -57.5t69 -58.5q28 -9 35 9q6 15 -9 22q-3 2 -6 2q-59 22 -62 68q-3 41 37 62q42 23 101 5q48 -19 66 -64t9 -90.5t-32 -83t-50 -44.5q-7 9 -34.5 18.5
t-59.5 12t-58.5 -13.5t-29.5 -52q-1 -14 2.5 -31t18 -34t37 -25t64 1t94.5 39q15 -20 31.5 -59t20.5 -72q-8 -6 -50.5 -35t-76 -54t-80.5 -64t-76.5 -75.5t-51.5 -77.5t-18 -81.5t36 -75.5q10 -12 37.5 -25t67.5 -20t85 -5.5t89 24.5t79.5 64t58 118.5t23.5 182.5
q0 69 -27 135q16 7 48.5 20.5t50 21.5t39.5 23t35 33q9 12 4.5 24.5t-23.5 0.5q-26 -27 -91 -53.5t-80 -35.5q-2 3 -30.5 49.5t-46.5 62.5zM368 179q-3 -152 -31.5 -252t-67.5 -136t-80.5 -45t-70.5 1.5t-37 23.5q-12 17 -16 23t-11.5 23t-5.5 27t6.5 30.5t19.5 39t38.5 47
t58.5 59t84.5 71.5t112.5 88zM246 399q-25 -19 -49.5 -31t-47 -10t-27.5 26q0 25 16.5 35.5t38 7.5t41.5 -11t28 -17z" />
    <glyph glyph-name="a" unicode="a" horiz-adv-x="484" 
d="M233 310l25 12q3 15 -4.5 47.5t-26 67.5t-52.5 50t-83 -5q-39 -18 -73 -88.5t-47.5 -148.5t1 -143.5t61.5 -72.5q8 -4 22 -5t33 3t43 20t46 42q2 -4 5.5 -19.5t7.5 -31t12 -34.5t20 -29t30.5 -14.5t43.5 8.5q1 1 32.5 22.5t56.5 47t62 101.5t65 186q6 20 -9 28
q-5 6 -10 5t-8 -5l-4 -3q-30 -126 -80.5 -217t-97.5 -119q-24 -14 -31 30q-5 41 6 130q14 42 -36 79q-23 23 -43 -17q-11 -21 -18 -60q-6 -34 -34.5 -69.5t-53.5 -36.5q-9 1 -12.5 29t0 72.5t14 93.5t33 98t53.5 79l10 2q34 -5 41 -135z" />
    <glyph glyph-name="b" unicode="b" horiz-adv-x="550" 
d="M129 183l25 25t59 70.5t79.5 114t74.5 151.5t56 187q14 104 -22 148t-117 43q-56 -15 -75 -26q-92 -53 -162 -276q-12 -40 -25 -111t-24.5 -169t-8.5 -210t25 -201q25 -50 86 -19q0 -27 8 -35q15 -16 48 -17t72.5 15t76 44.5t62 78t26.5 108.5q18 5 37 14.5t50 32.5
t55.5 67.5t35.5 104.5q5 16 -6 26l-16 2q-15 -54 -35.5 -96t-38 -63.5t-38.5 -36t-29 -17.5t-18 -6q1 63 -38.5 95.5t-88.5 30.5q-21 -1 -47 -15.5t-87 -59.5zM100 208q0 2 3.5 52.5t9 98t15 115t28 138t42.5 130.5q7 20 17 41t24 43t29.5 37t32 22t34 -0.5t33.5 -30.5
q38 -66 17 -163t-75 -197.5t-113 -179t-97 -106.5zM104 -79q-21 175 34 235q45 48 99 63q27 7 40.5 -36t6.5 -87q-45 -15 -80.5 -39t-53.5 -46.5t-29 -43.5t-14 -33zM125 -106q-15 21 52 94.5t104 71.5q-18 -94 -67 -141t-89 -25z" />
    <glyph glyph-name="c" unicode="c" horiz-adv-x="457" 
d="M454 349q-3 -10 -9 -27.5t-28.5 -61.5t-48 -78t-68.5 -63.5t-90 -32.5q-32 -2 -52.5 37.5t-23.5 97t4 116t29.5 100.5t52.5 44q1 -1 9 -5t12 -10.5t8 -19t1 -38t-14 -60.5q2 0 8.5 -4.5t12.5 -3.5t12 12q53 104 -21 147q-12 7 -27 13t-40.5 10.5t-49.5 1.5t-49.5 -19
t-44 -45.5t-31 -84.5t-13.5 -130q0 -60 30.5 -116.5t80 -86t97.5 -14.5q40 13 77.5 34t77.5 55t72.5 87t49.5 119q4 17 -5 23q-3 3 -8 3.5t-8 0.5z" />
    <glyph glyph-name="d" unicode="d" horiz-adv-x="583" 
d="M412 -115q-24 -11 -41 40q-29 94 -25 359q3 6 14 26.5t14.5 27.5l13.5 27t15 33.5t15 37.5t17.5 47t17.5 54.5t20.5 69t22.5 80.5q25 99 11 187q-14 87 -63 83q-32 -2 -76 -45q-1 -2 -17.5 -19t-28 -32.5t-30 -55t-31.5 -87.5t-23.5 -128t-13.5 -178q-47 17 -102.5 16
t-97.5 -33q-31 -23 -44.5 -107.5t3 -174.5t63.5 -119q7 -5 19 -11t34.5 -8t44.5 4.5t47 33t44 70.5q3 -10 9.5 -68.5t23 -107t48.5 -68.5q33 -17 58 -18t54.5 22t56 78.5t58 155.5t66.5 248q0 24 -9 29q-1 2 -5.5 2h-8.5l-4 -1q-36 -152 -72 -262t-59.5 -155.5t-38.5 -52.5z
M335 341q-2 20 1.5 105t24 223.5t57.5 230.5q7 14 23 8q37 -14 23 -138q-5 -35 -13 -78q-31 -120 -60 -208t-43 -116zM134 28q-38 4 -56.5 97.5t17 177.5t128.5 67q0 -5 4 -97t2 -137q-1 -23 -33 -67t-62 -41z" />
    <glyph glyph-name="e" unicode="e" horiz-adv-x="417" 
d="M13 104q13 -24 49.5 -43.5t88 -21t104.5 20t103 89.5t79 176q2 15 -3 22q-1 2 -6 2.5t-9 0.5l-4 -1q-17 -52 -36.5 -95t-38 -70t-37.5 -47.5t-34.5 -29.5t-30.5 -15.5t-24 -4.5t-15 2q-4 2 -17 7t-21.5 11.5t-19.5 22t-17 46.5t-7 76q17 -3 42 5.5t50.5 26.5t43 53
t16.5 79q-1 12 -4.5 22t-9 17t-10.5 12.5t-14 9t-14 6t-16 3.5t-15 1.5t-15 1t-13 0.5q-65 0 -107 -43.5t-54 -106t-8 -126.5t24 -109zM114 289q8 62 19 95.5t33 61.5q10 5 22 6.5t23.5 -12.5t12.5 -41q-4 -34 -14.5 -56.5t-27 -33t-31.5 -14.5t-37 -6z" />
    <glyph glyph-name="f" unicode="f" horiz-adv-x="413" 
d="M218 158q-29 86 -114 66q35 32 67.5 74t68 107.5t61 161t34.5 208.5q8 89 -41 139q-39 41 -81 21q-18 -9 -32 -30q-1 -2 -15 -19t-27.5 -39t-33.5 -60t-37.5 -93t-34 -124.5t-29 -168.5t-17.5 -213q-2 -47 8 -114t30 -137.5t59 -116t88 -39.5q12 2 24.5 8.5t29 29.5
t25.5 58t7 100t-20 149q5 2 24 9.5t28 12t26.5 15t29.5 23.5t28 32t30 45.5t27 60.5q-2 14 -6 22l-18 7q-36 -100 -81 -140.5t-108 -54.5zM105 279q7 71 15.5 136t15 111t16 93.5t15 73.5t15.5 61.5t13.5 46.5t13 40.5t10.5 31.5q7 21 32 20q33 -1 46 -42q6 -21 5 -48
q-3 -107 -24.5 -200.5t-50 -150.5t-56.5 -98t-47 -58zM111 143q20 -25 49 -31t37 1q17 -64 20 -133.5t-9.5 -115.5t-34.5 -45q-24 2 -49 130t-13 194zM190 147q-9 1 -18.5 0t-19.5 1t-17.5 5t-11.5 12.5t-3 24.5q26 19 44.5 1.5t25.5 -44.5z" />
    <glyph glyph-name="g" unicode="g" horiz-adv-x="500" 
d="M200 167q-88 -11 -109 82q-19 82 19 185q34 94 85 114l20 4q16 -2 26 -5t24 -11.5t18.5 -23t9.5 -39.5t-2 -61q6 -7 13.5 -9.5t12 0.5t3.5 8q15 40 10.5 76t-30 61t-58.5 37.5t-76 6.5t-81 -32q-21 -15 -40.5 -34.5t-39 -51.5t-30.5 -68.5t-11 -87t15 -105.5
q17 -52 65.5 -76t147.5 -9q0 -45 -8 -74q-60 -38 -110 -103t-76.5 -133t-21.5 -134.5t49 -105.5q8 -6 27.5 -13t50 -8.5t59.5 8.5t55 47t36 99q20 119 30 223.5t17 137.5q4 5 24.5 14t46 23.5t54 38t55.5 69t44 106.5q5 17 -4 24q-3 2 -8 2.5t-8 0.5l-4 -1
q-14 -50 -38.5 -91.5t-49 -65.5t-49.5 -41.5t-39.5 -23.5t-18.5 -7q0 1 6 89q3 10 3 20t-1 17t-6 15t-8 12.5t-11.5 12.5t-12 11t-14.5 12q-30 24 -41 -8q-3 -9 -4 -20.5t-4 -41t-12 -72.5zM178 -3q-1 -5 -3.5 -63t-6.5 -116.5t-19.5 -121.5t-39.5 -89q-9 -7 -24.5 -7
t-34.5 13.5t-27 35.5q-10 48 2.5 101.5t37.5 95.5t50.5 77t44.5 55z" />
    <glyph glyph-name="h" unicode="h" horiz-adv-x="551" 
d="M110 120q-1 36 2 119.5t7 111.5q12 17 42 40t60.5 49t61.5 63t53 97.5t28 137.5q7 77 -22 146t-77 85.5t-106 -47.5q-1 -1 -9.5 -11.5t-13.5 -18t-15 -24t-19 -36t-20 -47.5t-22.5 -66.5t-23.5 -83.5q-1 -7 -10 -46.5t-13.5 -75t-9.5 -102t-2.5 -168t12.5 -232.5
q0 -14 8.5 -25.5t15.5 -16.5t24 -14t21 -11q12 -6 22.5 1.5t14.5 27.5t0 46q-1 69 39 148t78 98q5 11 14 2q16 -15 13 -74q-54 -364 23 -404q1 0 3 -1q97 -45 170 66q87 132 118 468q-2 13 -7 22q-1 2 -6 4t-10 2l-5 1q-35 -375 -121 -491q-38 -52 -68 -28q-28 22 -20 82
q1 2 1 4q-2 37 9 101.5t15.5 110t-11.5 125.5q-4 14 -19.5 31t-41 25t-54.5 -1t-64 -57t-65 -133zM120 398q1 4 9 96.5t32 207.5t68 197q9 15 32.5 19t47 -38.5t19.5 -143.5q-4 -68 -24 -121.5t-47 -85.5t-53.5 -54.5t-51 -42t-32.5 -34.5z" />
    <glyph glyph-name="i" unicode="i" horiz-adv-x="327" 
d="M324 357q-42 -289 -131 -376q-44 -43 -78 -15q-25 22 -23 70q9 191 28 301q5 20 -6.5 44t-44.5 45q-16 10 -36.5 -1t-25.5 -32q-4 -16 -10.5 -81.5t-10.5 -154t13 -161.5t56 -85q108 -28 185.5 76t107.5 342q-1 19 -6 26zM149 559q-3 20 -31.5 32.5t-55.5 17.5
q-2 -1 -4.5 -3t-7.5 -10t-7 -17.5t0.5 -25.5t12.5 -34q1 -8 38 -16t42 -1q4 4 6 14t3.5 23t3.5 20z" />
    <glyph glyph-name="j" unicode="j" horiz-adv-x="290" 
d="M116 98q0 270 8 345q0 20 -18 36.5t-48 34.5q-22 20 -37 16t-21 -43q0 -327 -7 -434q-2 -6 -22.5 -34.5t-45 -64.5t-52 -85.5t-43.5 -97.5t-18.5 -101t22.5 -96q6 -9 21 -19.5t38.5 -15.5t49 0t54.5 33.5t52 78.5q1 3 10 24.5t11.5 29l10.5 31.5t11 41t9 48.5t8.5 62.5
t5 74t2.5 92q29 24 37 30.5t36.5 35t43.5 51t37.5 63.5t40.5 88q1 13 -3 21l-20 8q-15 -33 -28.5 -60l-23 -46t-23 -38t-19.5 -28t-20 -24t-18 -19t-21 -19.5t-20 -18.5zM-6 -6q0 -154 -22 -287q-25 -148 -70 -134q-7 2 -14 8q-36 29 -38 82.5t20 108.5t49.5 106t50.5 84z
M99 593q1 3 3.5 9t7 21t7 28t2 26.5t-6.5 20.5q-3 0 -26.5 4.5t-41 7t-25.5 -0.5q-15 -31 -13.5 -55t11.5 -38l10 -15q25 -8 43 -10t24 0z" />
    <glyph glyph-name="k" unicode="k" horiz-adv-x="507" 
d="M172 85q75 44 108 81q43 48 53 105q6 32 -9 62t-49 39.5t-90 -28.5q-2 -3 -17 -17.5t-25.5 -26.5t-24.5 -33.5t-22 -44.5q0 21 4.5 61t10.5 55q85 88 141.5 174.5t78.5 151.5t27 121t-4.5 89t-26.5 48q-10 9 -31 18.5t-52 12t-61.5 -7t-60.5 -44.5t-48 -94
q-22 -71 -37 -142t-32 -262t-20 -454q1 -25 41 -48q46 -25 68 -6q10 9 9 27q-1 13 -4 75t-3 76q4 -8 10.5 -22t30 -50t49.5 -63t66.5 -49.5t82.5 -21.5q57 5 96 40.5t60.5 101t31.5 139t14 175.5q-5 21 -10 28q-1 2 -7 2t-11 -1h-5q-14 -230 -44.5 -321t-94.5 -120
q-10 -8 -26 -4t-36 18t-53 54t-78 106zM113 393q23 247 63 382q7 22 19 48t29 51.5t34.5 33.5t35.5 -5q12 -14 20.5 -38t7.5 -71t-17.5 -101.5t-65.5 -134t-126 -165.5zM266 336q10 -21 11 -38.5t-13.5 -36t-31 -33.5t-42 -29.5t-46.5 -25t-44 -19.5q9 31 36 76.5t65 80.5
t65 25z" />
    <glyph glyph-name="l" unicode="l" horiz-adv-x="390" 
d="M180 -118q-21 3 -35.5 71.5t-18 152t-6 160t0.5 95.5q54 51 101.5 134t73.5 166t30.5 158.5t-28.5 112.5q-12 14 -34 22.5t-52.5 5t-60.5 -22.5t-59.5 -68.5t-47.5 -124.5q-17 -59 -31 -174.5t-12.5 -292.5t33.5 -316q7 -27 21 -50t23.5 -33.5t32.5 -33.5
q11 -10 34.5 -13t61 16.5t74.5 66t74.5 152.5t61.5 257q-1 16 -6 23q-1 2 -6 3t-10 1l-5 1q-17 -102 -40.5 -185t-46.5 -134.5t-47 -86.5t-42.5 -49t-33.5 -14zM119 412q9 109 41 286t63 214q11 24 31 18q32 -10 32 -81q0 -15 -1 -31q-7 -78 -27 -148.5t-43 -115.5
t-45 -78.5t-36 -48.5z" />
    <glyph glyph-name="m" unicode="m" horiz-adv-x="817" 
d="M577 -109q-16 27 0 205.5t38 317.5q5 62 -48.5 109t-90.5 11q-22 -25 -58 -94t-61.5 -126.5t-25.5 -62.5q-2 2 1 34t4.5 69t-14.5 76t-50 56q-7 8 -23.5 8t-29.5 -13q-55 -61 -111 -172q0 8 6.5 63.5t11.5 84.5q16 43 -39 74q-53 39 -68 -16q-14 -46 -19.5 -116.5
t6.5 -142t42 -100.5q10 -3 22 -2.5t24.5 18.5t17.5 51q5 34 32 90t56.5 97.5t42.5 38.5q4 -4 -5.5 -60.5t-20 -129.5t-7.5 -108q0 -44 65 -92q30 -25 44 22q0 23 12 38q6 14 28.5 77.5t54 141t65.5 140.5q2 2 6 8q17 23 18 7l-1 -15q-1 -4 -8.5 -51t-13.5 -90t-13.5 -107.5
t-9.5 -119.5t-0.5 -109t13 -93.5t31.5 -57.5q68 -47 139 0q130 87 207 480q-3 14 -8 21q-1 2 -7 2.5t-11 -0.5l-5 -1q-15 -74 -31.5 -137t-32.5 -108t-32.5 -82t-31.5 -60.5t-29.5 -40t-26.5 -24.5t-23 -11.5t-19 -2.5t-13 5z" />
    <glyph glyph-name="n" unicode="n" horiz-adv-x="592" 
d="M617 324q-1 12 -6 20l-20 5q-97 -425 -172 -422q-11 1 -21 11q-6 6 -12.5 31.5t-9 86.5t14.5 151q21 146 14 211q-9 50 -64.5 81t-90.5 -2q-88 -88 -139 -237q0 68 15 139q4 21 -6.5 37.5t-21 23.5t-37.5 23q-7 7 -24 0.5t-17 -19.5q-42 -179 -13 -308q1 -2 2.5 -8.5
t2.5 -9.5t3.5 -9.5t5 -9.5t6.5 -8.5t8 -8t10.5 -5.5t14 -4t17.5 -1t21 2q36 7 16 81q2 3 18 44t35 85.5t49 94.5t59 75q22 15 22 -22q1 -25 -22 -155q-8 -44 -8 -60q-9 -75 8 -192t66 -167q16 -27 51 -24q70 4 132 142q54 119 93 328z" />
    <glyph glyph-name="o" unicode="o" horiz-adv-x="482" 
d="M315 271q14 39 14.5 76t-4 56t-16.5 58q-14 40 -45.5 64t-61 25.5t-54.5 -7.5l-6 -3q-5 -2 -6.5 -3t-8 -4.5t-8.5 -6t-8 -8t-7 -9.5t-6 -11.5t-5 -14t-2.5 -16.5t0.5 -20q-49 9 -79.5 -64.5t-22.5 -171.5q2 -25 9.5 -51.5t21 -56t38 -47t56.5 -15.5q32 4 54.5 12t49.5 27
t48.5 58t37.5 97q152 -23 203 93q8 18 -5 26q-9 5 -14 3.5t-6 -5.5l-2 -3q-12 -33 -36.5 -54t-50 -27t-47 -5t-31.5 8zM101 430q32 -71 86.5 -125.5t87.5 -60.5q-51 -134 -106 -143q-29 8 -41.5 64.5t-11 109.5t6.5 82q2 7 -10 39t-12 34zM286 289q-46 22 -88.5 79
t-42.5 102q3 36 21.5 46.5t39 1t34.5 -27.5q31 -46 39 -84q10 -51 -3 -117z" />
    <glyph glyph-name="p" unicode="p" horiz-adv-x="559" 
d="M50 533l-8 4q-38 -1 -45 -235q-13 -124 -6 -601q1 -66 43 -108.5t96.5 -14.5t83.5 141q16 74 -15 156.5t-81 123.5q1 13 3 29q16 -10 48 -10.5t74 11t87.5 55.5t75.5 114q4 2 22.5 8.5t32 13t33.5 19.5t41.5 34t41.5 50q1 2 2.5 4.5t3 10t-3.5 11.5q-6 7 -11.5 6.5
t-9.5 -3.5l-3 -4q-28 -35 -52.5 -58t-35 -29.5t-30 -14t-22.5 -8.5q5 20 6.5 45.5t-2 62.5t-24.5 72.5t-57 59.5q-67 37 -127 16.5t-92 -94.5q4 32 4 38t-4 38q-8 26 -27.5 44.5t-41.5 12.5zM114 -39q0 -1 20 -33t37 -84t11 -102q-3 -29 -10.5 -51.5t-16 -33.5t-16.5 -17.5
t-13 -7.5l-5 -2q-44 25 -7 331zM118 118q0 10 4.5 98t3.5 104q3 34 14 59t21 36t31 30q41 27 68 23t39.5 -25.5t11.5 -54.5q0 -46 -4.5 -78.5t-10.5 -50t-19 -51.5q-4 -2 -32.5 -11.5t-49.5 -18t-44.5 -25t-32.5 -35.5zM133 56q-1 20 6 36.5t15 25.5t31.5 20t32.5 14l42 14
q-24 -62 -54.5 -84.5t-72.5 -25.5z" />
    <glyph glyph-name="q" unicode="q" horiz-adv-x="583" 
d="M179 148q-5 -7 -15 -76t-15.5 -164t6.5 -186q2 -17 14 -45.5t33.5 -58t47 -47t59 -6.5t65.5 59q18 38 29 65.5t21 79t5.5 95t-29 101t-71.5 111.5q19 3 39.5 9t54 23t63 42.5t62.5 70.5t57 102q7 18 -3 29q-4 3 -9.5 3t-8.5 -1l-3 -2q-13 -32 -30 -61t-35.5 -51
t-37 -40.5t-39.5 -33t-37 -24.5t-35 -18.5t-29.5 -12.5t-23.5 -8.5t-14 -4.5q4 20 29.5 104t38.5 133q4 11 3.5 21t-2 17.5t-8.5 14.5t-12 11t-16 10t-17 8.5t-19 7.5q-18 18 -33 -10q-3 -9 -13 -44t-19 -62t-21 -58.5t-24.5 -50.5t-24.5 -21q-28 -2 -42 59t15 146.5
t108 136.5q18 10 40.5 -10t15.5 -42q1 -3 3 -5.5t9.5 -6.5t15.5 7q4 7 4 20t-11 29t-26.5 29t-43.5 21t-61 5q-60 -5 -116 -65.5t-72 -144t34 -173.5q19 -30 58.5 -41.5t85.5 4.5zM283 44q21 -6 55 -50t38 -67q8 -42 10.5 -77.5t2 -57.5t-5.5 -45.5t-8.5 -33t-11.5 -27.5
t-10 -22q-4 -10 -13.5 -22.5t-22.5 -25t-27 -7.5t-23 32q-6 21 -9.5 69.5t1.5 143.5t24 190z" />
    <glyph glyph-name="r" unicode="r" horiz-adv-x="501" 
d="M498 345l-25 -129q-68 -297 -147 -302q-4 -1 -9 0q-6 1 -13 8.5t-18.5 52t4.5 137.5q3 24 9 55t9 55.5t3 60.5q3 39 -27.5 53t-62.5 -7q-17 -13 -50.5 -19.5t-67 2.5t-43.5 37q5 11 18 34.5t19.5 39t11.5 35t0 36t-21 29.5q-26 23 -61.5 7.5t-52.5 -62.5q-6 -20 -6 -39.5
t1 -32t10 -33.5t13 -29t18 -34q26 -31 72.5 -43.5t108.5 4.5q-68 -239 -3 -354q18 -32 61.5 -44t98.5 12q19 10 29.5 17.5t34 38t40.5 73t38 124.5t38 192q5 19 -7 26q-8 5 -13 4.5t-8 -2.5zM31 380q-15 21 -18 49t10 57q13 15 24 15.5t15 -7.5l5 -7q5 -5 1.5 -20t-6 -21
t-13 -27t-18.5 -39z" />
    <glyph glyph-name="s" unicode="s" horiz-adv-x="423" 
d="M22 268q2 -4 38 -75t47 -101q-51 -36 -82 -70.5t-41 -61t-7 -50t16.5 -40t32.5 -29.5t38 -20t36 -9q21 -3 50 1t64.5 17.5t56.5 51.5t14 95q-2 29 -8 56t-11.5 41t-13.5 30t-9 19q7 6 37 26.5t54.5 40t56.5 57t55 81.5q10 16 -3 24q-7 3 -12 2.5t-8 -2.5l-3 -3
q-73 -125 -197 -181q-101 168 -115 204q57 98 36 169q-15 50 -61 49q-24 0 -51 -17q-24 -15 -37.5 -31.5t-22 -49.5t4 -89.5t45.5 -134.5zM123 47q4 -9 11 -25t12.5 -28.5t12.5 -29.5t10.5 -30.5t6.5 -27.5t0.5 -24.5t-7.5 -18.5t-17 -11.5t-29 -2.5q-26 2 -51.5 12.5
t-41.5 29t-17 41.5t26 53.5t84 61.5zM88 418q-2 6 -9 18.5t-11 22.5t-8 23t-3 26.5t7 27.5l4 3q4 3 5.5 4t5 3t5.5 2h5.5t5.5 -3t4.5 -7t4.5 -11t4 -16q3 -31 0.5 -43t-20.5 -50z" />
    <glyph glyph-name="t" unicode="t" horiz-adv-x="434" 
d="M-96 612q-1 0 -1.5 -1t-3 -3.5l-5 -5t-4 -6t-2.5 -6t0.5 -5.5t4.5 -4.5t9.5 -2.5t16.5 0q16 -1 29.5 -3.5t20 -4.5t22.5 -8t21 -8l-8 -70q-8 -70 -10 -118.5t-1.5 -125.5t14.5 -148t40 -130q16 -35 62 -70q98 -76 182 -11q116 91 173 441q5 26 -12 32q-8 4 -12.5 2.5
t-5.5 -4.5l-2 -4q-22 -134 -52.5 -227t-59.5 -134.5t-60 -57.5t-52 -11t-36 20q-31 37 -43.5 193t8.5 364q12 -13 60 -15.5t104 6t109.5 34.5t73.5 63l2 23q-1 17 -19 7l-2 -1q-35 -51 -102.5 -74t-124.5 -19.5t-89 19.5q7 11 22.5 41.5t38.5 81.5t38 100.5t21.5 97.5
t-10.5 73q-12 15 -20 19t-27 5q-42 3 -76.5 -30t-55 -86t-33.5 -101.5t-21 -94.5l-8 -45q-40 26 -114 13zM224 913q50 -53 -79 -302l-5 -10q0 3 3.5 48t6.5 77t10.5 78.5t17.5 77.5q1 2 2 5t5.5 12t9.5 12.5t13 6.5t16 -5z" />
    <glyph glyph-name="u" unicode="u" horiz-adv-x="569" 
d="M131 112q-6 3 -9 27t2 109t23 216q-1 18 -22 50q-30 27 -61 22t-44 -42q-7 -32 -13.5 -79t-11 -113.5t5 -127t34.5 -91.5q15 -17 41.5 -23t57.5 1t63.5 37t55.5 79l1 -11q0 -12 1 -26t4 -35t7.5 -40.5t13 -40.5t19 -37.5t26.5 -28.5t36 -16q9 -2 15 -2.5t26 3.5t36 15
t40 38t43.5 67t40.5 106.5t36 152.5q-1 14 -7 21q-2 2 -7.5 2.5t-10.5 0.5l-5 -1q-37 -227 -109 -325q-43 -58 -71 -31q-4 4 -7 9q-15 34 -21 87t-4.5 89.5t6.5 97t5 68.5q-1 19 -28.5 45t-46.5 33t-26 2q-15 -14 -18 -98q3 -36 -8.5 -83.5t-41 -87t-67.5 -39.5z" />
    <glyph glyph-name="v" unicode="v" horiz-adv-x="446" 
d="M177 18q-19 15 -34 109t-13 154q0 3 -2 20t-2.5 20t-3.5 17t-5 17.5t-7 13.5t-11 15t-14.5 11.5t-19.5 11.5q-22 9 -45 3.5t-18 -26.5q-3 -149 3 -211q24 -264 173 -264q28 65 42.5 101.5t34 97t36.5 129.5q3 -3 17 -7t36.5 -3.5t45.5 7t44.5 29t33.5 59.5q6 16 -4 25
q-1 2 -5.5 3t-8.5 1h-5q-15 -36 -34 -56t-36 -23.5t-32 0t-24.5 10.5t-12.5 13q14 37 15 68t-17.5 52t-56.5 21q-16 -3 -28 -30t-4 -68.5t43 -74.5q-22 -90 -36.5 -133t-44.5 -112zM271 328l-16 32q-11 33 8 39q18 0 20 -17.5t-5 -35.5z" />
    <glyph glyph-name="w" unicode="w" horiz-adv-x="671" 
d="M6 416q-7 -20 -7 -90.5t7 -150t27.5 -145t49.5 -72.5q5 0 13.5 -2t21 4t26 14t28 26.5t27.5 41.5t25 60.5t20 82.5q2 3 4.5 -9.5t7.5 -60.5q12 -104 21 -138q8 -40 40.5 -74t72.5 -10q3 5 17.5 20.5t27 34t32 75.5t37.5 142q28 -4 43 -4.5t40 6t41.5 23t35.5 50.5t33 85
q2 25 -10 31q-5 5 -9 5t-6 -3l-2 -2q-32 -114 -67.5 -142.5t-89.5 -7.5q32 149 -43 155q-42 3 -50 -39t9.5 -88.5t37.5 -57.5q-29 -181 -74 -181q-27 23 -27 158q-5 35 -25.5 57.5t-54.5 46.5q-3 1 -4.5 2.5t-3.5 2.5q-20 20 -39 0q-10 -11 -38 -113.5t-53 -112.5
q-13 1 -17 55.5t-3.5 137t-2.5 111.5q0 35 -40.5 58.5t-78.5 17.5zM480 217q-13 16 -20 50.5t-1 51.5q0 10 9 12q8 1 16 -17q7 -35 -4 -97z" />
    <glyph glyph-name="x" unicode="x" horiz-adv-x="548" 
d="M200 171q-30 89 -51 126q-53 96 -119 77q-14 -5 -24.5 -16t-11 -21t13.5 -16q0 -1 3 -4t8 -10t11 -17.5t13.5 -28.5t15 -41t16 -57.5t15.5 -74.5q-151 -287 -271 -322q-7 -7 1.5 -17t17.5 -10q52 -3 141.5 109t122.5 189q11 -58 44 -154t67 -127q11 -8 26 -10.5t37 5.5
t46.5 28.5t55 64t61.5 105t67 158.5t71 218q7 18 -6 26q-3 2 -9 2t-10 -1h-4q-49 -164 -96.5 -281.5t-81.5 -171.5t-55 -52q-27 2 -59 102.5t-42 164.5q21 44 74 126.5t114 158.5q8 10 0 32q-6 20 -19 7q-19 -16 -86.5 -112t-96.5 -155z" />
    <glyph glyph-name="y" unicode="y" horiz-adv-x="547" 
d="M148 171q-25 9 -29.5 103.5t12.5 189.5q6 21 -6.5 39.5t-34.5 26.5q-16 6 -32.5 -3t-22.5 -24q-10 -25 -17.5 -55t-15.5 -74.5t-2.5 -89t26.5 -76.5q7 -12 21 -28t39 -31.5t51 -19t59 18t61 71.5q1 -11 1 -56v-64q-114 -106 -168.5 -246t-16.5 -237q7 -18 30.5 -34
t57 -21t69 3t70.5 41.5t57 90.5q37 92 31 423q48 24 108.5 83.5t81.5 126.5q11 23 -3 29q-4 5 -10 5t-11 -3l-4 -2q-12 -36 -28.5 -65.5t-39 -52t-35.5 -34t-37 -26.5l-24 -16q13 273 13 365q6 33 -27.5 60t-71.5 34q-15 -4 -24 -169t-17 -174q-41 -68 -63.5 -90.5
t-47.5 -18.5zM259 48q0 -8 4.5 -84t5 -139.5t-17.5 -129.5t-57 -83q-87 -42 -99 44q-24 207 164 392z" />
    <glyph glyph-name="z" unicode="z" horiz-adv-x="485" 
d="M279 97q6 6 35 26t54.5 40t63.5 63t71 96q2 2 3.5 5.5t3.5 13t-5 12.5q-6 6 -11.5 4.5t-9.5 -5.5l-4 -5q-28 -46 -65.5 -84.5t-60 -54.5t-65 -42t-46.5 -29q-46 31 -73 25q1 1 13 9t27 20t32 29.5t33.5 44t26.5 57.5q12 39 -21 67t-72 28q-50 0 -128.5 -17t-89.5 -35
q-1 -39 11 -49.5t35 4.5q9 4 26 12t30 14.5t30 13t29.5 10t24.5 3.5t19 -5q12 -25 -131 -206q-8 -8 -8.5 -15.5t2.5 -13t9 -13.5t8 -13q11 -20 41 -4q5 5 17.5 9t33 0.5t38.5 -18.5q-206 -239 -218 -395q-2 -49 35 -94.5t99.5 -53.5t145.5 61q16 16 31.5 35.5t39 69
t29.5 101.5t-14 127.5t-75 151.5zM226 62q17 -28 23.5 -88.5t-2.5 -129t-29 -128t-60.5 -90.5t-92.5 -12q-15 9 -25 21t-14.5 45.5t10 78.5t62 124.5t128.5 178.5z" />
    <glyph glyph-name="quoteleft" unicode="&#x2018;" horiz-adv-x="235" 
d="M174 698q2 8 -7 15.5t-21.5 8.5t-23.5 -6q-21 -16 -42.5 -54t-30 -82.5t15.5 -78.5q43 -21 76.5 -14t44.5 25q22 80 0 86q-10 5 -31 5t-33 -10q1 18 9.5 36t24.5 42z" />
    <glyph glyph-name="quoteright" unicode="&#x2019;" horiz-adv-x="223" 
d="M50 504q-2 -8 7 -15.5t21.5 -8.5t23.5 6q21 16 42.5 54t30 82.5t-15.5 78.5q-43 21 -76.5 14t-44.5 -25q-22 -80 0 -86q10 -5 31 -5t33 10q-1 -18 -9.5 -36t-24.5 -42z" />
    <glyph glyph-name="quotedblleft" unicode="&#x201c;" horiz-adv-x="462" 
d="M174 698q2 8 -7 15.5t-21.5 8.5t-23.5 -6q-21 -16 -42.5 -54t-30 -82.5t15.5 -78.5q43 -21 76.5 -14t44.5 25q22 80 0 86q-10 5 -31 5t-33 -10q1 18 9.5 36t24.5 42zM377 686q17 9 -3 22q-25 14 -43 3q-19 -15 -40.5 -63.5t-25.5 -93t24 -61.5q25 -7 44 -9.5t31.5 -0.5
t19 4t13.5 7l7 5q0 6 4.5 28.5t4.5 38.5t-9 19q-35 14 -53 10q0 6 1 18.5t1.5 17t2 13.5t4 14t7 12.5t10.5 15.5z" />
    <glyph glyph-name="quotedblright" unicode="&#x201d;" horiz-adv-x="419" 
d="M250 504q-2 -8 7 -15.5t21.5 -8.5t23.5 6q21 16 42.5 54t30 82.5t-15.5 78.5q-43 21 -76.5 14t-44.5 -25q-22 -80 0 -86q10 -5 31 -5t33 10q-1 -18 -9.5 -36t-24.5 -42zM47 516q-17 -9 3 -22q25 -14 43 -3q19 15 40.5 63.5t25.5 93t-24 61.5q-25 7 -44 9.5t-31.5 0.5
t-19 -4t-13.5 -7l-7 -5q0 -6 -4.5 -28.5t-4.5 -38.5t9 -19q35 -14 53 -10q0 -6 -1 -18.5t-1.5 -17t-2 -13.5t-4 -14t-7 -12.5t-10.5 -15.5z" />
    <glyph glyph-name="controlGS" horiz-adv-x="0" 
 />
    <glyph glyph-name="controlCR" horiz-adv-x="293" 
 />
    </font>
</defs>
</svg>
